<?xml version="1.0" encoding="UTF-8"?>
<svg width="455px" height="455px" viewBox="0 0 455 455" version="1.1" xmlns="http://www.w3.org/2000/svg" xmlns:xlink="http://www.w3.org/1999/xlink">
    <!-- Generator: Sketch 48 (47235) - http://www.bohemiancoding.com/sketch -->
    <title>Robert</title>
    <desc>Created with Sketch.</desc>
    <defs></defs>
    <g id="Page-1" stroke="none" stroke-width="1" fill="none" fill-rule="evenodd">
        <g id="Robert" stroke="#262626">
            <g id="Group-2" transform="translate(85.000000, 11.000000)">
                <polyline id="Path-14" points="87.7317128 42.7124028 83.1160097 58.5404863 81.4177462 64.9364645 79.7107282 70.3092692 76.6549011 75.6890468 76.6549011 79.3982026 78.1751056 84.7847682 78.7928388 93.6872316 78.7928388 101.702534 74.8690532 111.194621 73 121.952495 73 132.839154 76.6549011 144.516159 81.4177462 154.810058 85.2276719 163.051353 87.7317128 170.423796 94.8759803 177.087927 103.188625 177.087927 118.772535 178 135.156967 175.655425 147.897009 170.423796 158.740845 164.569416 169.707301 154.810058 178.566473 140.732908 178.566473 134.297236 180.664121 127.379947 183 113.745602 180.664121 101.702534 174.915951 91.0196359 172.63525 81.7030835 163.387203 75.6890468 168.684314 61.4275414 161.004098 51.1081614 151.766272 45.3576306 144.11561 42.0136975"></polyline>
                <path d="M79,78.6223901 C79,78.6223901 81.5168483,77.4149267 86.550545,75 L97.3568697,78.6223901 L102,89.2764472 L97.3568697,102.910814 L91.4762778,112.05343 L90.5,118.435024 L97.3568697,126" id="Path"></path>
                <polygon id="Path-3" points="101.684842 126 99 124.204438 101.684842 122 110 122"></polygon>
                <polygon id="Path-4" points="83 91.7052611 88.4720506 91.7052611 95.8187 93 99 92.3526305 95.8187 86.7915118 91 85 85.9467835 85 83 89"></polygon>
                <polygon id="Path-5" points="120 97.0633769 128.632798 97.0633769 134.967623 98 143 98 136.323637 91.9243348 130.418464 90 124.4478 90.9466968"></polygon>
                <polygon id="Path-6" points="86 138 95.9611213 143 123 143 105.550415 140.5 97.5553346 139.606595"></polygon>
                <polyline id="Path-7" points="84 138 91.665033 145.232226 98.1387678 150 111.671354 148.246928 122.853862 143.315538"></polyline>
                <polyline id="Path-8" points="128 134 133.987442 141.341742 135 151"></polyline>
                <polyline id="Path-9" points="82 140 82 131.990554 85 125"></polyline>
                <polyline id="Path-10" points="80 133 81.6516318 126.194132 86 120"></polyline>
                <path d="M121,165 L128,155" id="Path-11"></path>
                <polygon id="Path-12" points="121 79.0613915 122.741409 82.04301 130.544504 80.5522008 136.519912 80.5522008 145.681306 84.4156674 150 87 140.812485 79.0613915 132.27404 76 125.682807 76"></polygon>
                <polyline id="Path-13" points="79.2770173 78.4769741 84.3971467 71.041678 92.1689444 72.4676661 98 74.5 96.3763164 78"></polyline>
                <path d="M142,142 L145,141" id="Path-15"></path>
                <path d="M140,136 L142,135" id="Path-16"></path>
                <path d="M99.9268855,177.525581 C99.2223848,178.0163 99.2223848,179.380039 99.9268855,181.6168 C100.983636,184.971942 100.091806,183.979208 103.89073,187.709891 C103.989272,187.806663 104.085003,187.901283 104.178102,187.993818 C107.674101,191.468653 109.061292,192.068552 113.235864,193.169025 C116.018912,193.902674 119.961034,193.535849 125.062228,192.068552 L148.585918,183.186656 L158.496051,181.6168 L163.41184,177.525581 L171.306604,164.674566 L175.504925,156.236591 L178.439385,152.86925 L178.439385,139.892646 C181.728519,140.945304 184.738484,140.446963 187.469281,138.397624 C190.200077,136.348285 193.580718,132.395699 197.611205,126.539864 L199.693713,119.592665 L203.670242,109.895456 L203.670242,99.927323 L199.693713,94.8199983 C197.470917,93.4976838 195.29768,93.4976838 193.174002,94.8199983 C191.050323,96.1423129 188.499795,98.8257171 185.522416,102.870211" id="Path-17"></path>
                <path d="M200.540997,96.0417162 L206,64.9429371 L206,44.3222575 C205.659774,40.1384807 204.20787,35.7575561 201.64429,31.1794837 C197.79892,24.312375 194.753051,22.4774462 191.072895,17.9538137 C188.619458,14.9380587 186.275375,12.1338401 184.040647,9.54115786 L157.270225,0.875852336 L140.228011,0 L117.568242,0 L110.323395,5.31044472 L104.976306,5.31044472 L90.811548,14.4281347 L85.4032495,19.4166136 L86.4376904,22.2971736 L82,23.3401953 L82,31.1794837 L86.4376904,33.5035321 L82,35.8310806 L88.7356708,44.3222575 L99.1159314,37.6861192" id="Path-18"></path>
                <polygon id="Path-25" fill="#000000" points="87.8648248 91.514068 88.6863111 88.882441 92.7296497 85.7716615 90.9241265 85.170953 85.9983506 85.170953 83 88.882441 83 91.514068"></polygon>
                <polygon id="Path-26" fill="#000000" points="121 97 127.352364 97 130.001064 90.1450606 124.679444 90.9208869"></polygon>
                <path d="M110,126 C110.957773,126.079768 112.084959,125.789082 113.381558,125.127941 C115.326457,124.136229 115.867808,123.721101 116.81718,122.255268 C117.450094,121.278046 117.752813,120.387695 117.725336,119.584213 L117.220396,114" id="Path-2"></path>
                <path d="M82.9471822,158 L77.7561086,158 L74.1938914,162.651536 L63.8127108,167.306971 L51.5020362,168.744737 L40.9903538,175.464705 L30.0629988,179.918366 L23.3242698,186.499919 L16.8127108,197.580947 L13.9648704,210.63683 L13.9648704,222.236428 L13.9648704,233.089363 L12.05761,243.008481 L8.5449192,258.229353 C8.3971515,261.440737 9.56804845,264.899479 12.05761,268.605577 C15.7919524,274.164724 16.3070877,273.36146 21.9825175,276.942666 C27.6579473,280.523872 27.387625,280.652119 33.9161868,282.398376 C40.4447485,284.144632 38.2585258,283.338757 47.2916757,283.712347 C56.3248256,284.085937 58.6740841,284.675368 65.6871041,283.712347 C72.700124,282.749326 74.1655616,282.089463 79.620835,280.597027 C85.0761085,279.10459 86.9939249,277.648068 90.4321884,276.942666 C93.8704519,276.237264 95.3552939,276.456461 97.4328877,276.942666 C98.8179502,277.266803 100.116686,278.116846 101.329096,279.492795" id="Path-27"></path>
                <path d="M9.5130096,256 C7.36024069,255.581966 5.66615877,255.746579 4.43076383,256.493838 C2.57767143,257.614726 1.45472094,258.609266 0.845209502,261.242931 C0.235698065,263.876595 0.538000737,265.726382 2.94313701,271.547509 C5.34827329,277.368635 5.34979261,276.550604 9.5130096,281.832681 C13.6762266,287.114758 14.6777437,287.638292 17.2605417,291.438766 C19.8433396,295.23924 19.408085,297.729668 21.8664842,301.814137 C24.3248833,305.898605 22.9849391,307.650548 24.8950716,315.090906 C26.8052042,322.531264 27.3837816,320.856365 30.2013292,328.405465 C32.0796943,333.438199 33.8882028,338.584625 35.6268548,343.844744 L43.050953,362.450381 L48.4561837,374.436957 L60.876458,389.492783 L67,394" id="Path-28"></path>
                <path d="M32,224 C34.2000797,226.692691 35.3826691,228.118224 35.5477682,228.2766 C35.7128673,228.434975 38.6827776,230.992827 44.4574993,235.950155 L55.0524735,237 L75.0524781,243.72016 L88,250" id="Path-29"></path>
                <polyline id="Path-30" points="88 232 85.1651317 215.07356 72.4955033 197.787764 60.7513273 183.430912 52 178"></polyline>
                <polyline id="Path-31" points="122.256155 249 125 238.909913 125 227.892147 115.700432 218.199498 107.704928 209.23387 99.2698184 198.215135 97 188"></polyline>
                <path d="M187.306195,259.357098 C184.519364,253.4137 182.504713,247.629014 181.262241,242.003039 C179.398533,233.564077 178.48895,229.767779 179,221.746234 C179.51105,213.724689 181.139701,213.937961 183.312509,207.546947 C184.761047,203.286271 186.092276,198.951097 187.306195,194.541426 L194.417282,180.052353 C195.94454,176.68227 197.938045,173.453185 200.397798,170.365101 C202.857551,167.277016 206.490253,163.514968 211.295903,159.078957" id="Path-32"></path>
                <path d="M179.050623,145.831501 L186.742205,149.558696 L190.488088,152.186727 L195.693906,152.72344 L204.991551,158.284464 L215.370081,158.996112 L219.675727,162.327135 L228.896882,162.327135 L239.749153,168.640574 L251.327864,173.854266 L262.093425,184.060158 L267.690091,191.874917 L272.029458,210.419441 C273.492074,216.417456 274.582407,222.057521 275.300458,227.339637 C276.018509,232.621753 276.428129,238.015623 276.529319,243.521249 C278.178854,244.77158 278.65969,246.613854 277.971827,249.048072 C277.283965,251.48229 276.983439,254.796988 277.070249,258.992167 L273.567267,271.177315 C273.243707,273.826245 272.234677,276.777709 270.540177,280.031707 C268.845676,283.285704 266.70579,286.381192 264.120519,289.318171 C262.439723,294.531076 260.453737,298.528817 258.16256,301.311394 C255.871383,304.093971 253.124594,305.844067 249.922194,306.56168 L235.86646,309 L225.186646,309" id="Path-33"></path>
                <polyline id="Path-34" points="192 258 199.458016 249.230577 211.106107 241.779023 222.992426 237.679241 231.822817 231.143571 237 226"></polyline>
                <polyline id="Path-35" points="161 370 168.625066 356.704611 176.097481 329.181784 179.195555 322.028192 181.965803 310.181962 187.093391 301.083281 189.414444 287.308161 191.985312 263.421002 191.985312 256.173114 193.085969 246.542507 193.085969 229.23652 197.473432 214.538316 203.802679 199.886044 209.239444 192.81483 217.888685 184.325469 224 181"></polyline>
                <path d="M192.115181,264.06689 C189.113715,260.439573 185.080556,257.464058 180.015705,255.140347 L111.160939,255.140347 C109.278987,255.640869 107.016465,257.550521 104.373371,260.869303 C101.730278,264.188086 100.605821,267.238501 101,270.020547 L101,282.243552 C100.519947,289.29669 100.519947,293.900037 101,296.053594 C101.480053,298.207151 102.924025,300.081586 105.331916,301.676899 C106.617663,302.557084 107.527201,304.332629 108.060532,307.003536 C108.593862,309.674443 108.593862,312.453846 108.060532,315.341745 L114.79109,330.599958 L119.083422,339.392485" id="Path-36"></path>
                <polyline id="Path-37" points="42 340 50.4786408 319.891926 62.5885636 302.746827 73.5862209 291.004741 84.6506142 283.473365 94 280"></polyline>
                <polyline id="Path-38" points="54 373 57.0033206 360.317767 63.3554858 345.253021 73.3072114 332.976099 81.9790231 323.800957 91.4672407 317.104932 100 314"></polyline>
                <polyline id="Path-39" points="47 355 59.4947933 337.688576 69.2963514 326.690069 77.5631459 318.657336 89.3825164 311.980711 101 307"></polyline>
                <polyline id="Path-40" points="47 354 51.4561541 338.11748 64.7939207 315.929999 74.8768955 302.955517 85.8331071 291.534095 93 290"></polyline>
                <polyline id="Path-41" points="64 364 74.0388619 347.125628 85.9378904 337.616378 100 332"></polyline>
                <polyline id="Path-42" points="73 398 71.3296456 387.28273 68.122479 375.917827 73 368 62 374.52124"></polyline>
                <polyline id="Path-43" points="192 258 208.365779 249.573117 227.355894 243.580254 239 238"></polyline>
                <polyline id="Path-44" points="118 220 127.036663 215.325636 140.715149 213 151 213"></polyline>
                <polyline id="Path-45" points="124 252 134.91039 243.642143 143 242"></polyline>
                <polyline id="Path-46" points="127 230 138.228633 226.932185 149.542806 226.932185 160 226"></polyline>
                <polyline id="Path-47" points="130 237 140.85037 233 152 233"></polyline>
                <polyline id="Path-48" points="160 215 164.296482 209.04325 168.805946 202.791216 175 196"></polyline>
            </g>
        </g>
    </g>
</svg>