<svg id="Layer_1" data-name="Layer 1" xmlns="http://www.w3.org/2000/svg" width="160" height="160" viewBox="0 0 160 160"><defs><style>.cls-1{fill:#f8dba2;}</style></defs><title>community</title><rect class="cls-1" width="160" height="160"/><path d="M44.74,91.92a22.82,22.82,0,0,1,4-10c.85-1.11,1.83-2.13,2.83-3.3C55.27,81,59,81.45,62.87,79.72A75.91,75.91,0,0,0,61.38,88c-.26,3.41.67,6.42,4.27,7.92a1.73,1.73,0,0,1,.77,1.42,83,83,0,0,1-1.5,9.47c-.4,1.68-1.69,3.55-3.64,3.16-1.28-.25-2.28-1.91-3.34-2.88.15-.29.07,0-.1.17-.81,1-1.72,2.73-2.46,2.67A5.36,5.36,0,0,1,52,107.7c-1.87-2.77-2.1-6-2-9.32,0-.8,0-1.61,0-2.29-1.17,0-2.65.44-3.45-.12a5.26,5.26,0,0,1-1.74-3.24Z"/><path d="M70.11,92.44c-4,2-6.41.57-6.29-3.87C64,81.8,67.2,76.41,72,71.77c5.31,3.4,10.51,3.47,15.9,0,5,4.83,8.31,10.41,8.14,17.52-.09,3.93-2.27,4.94-6.23,3.23a25,25,0,0,1-1,12,14,14,0,0,1-2.36,4.17c-2.1,2.42-4.56,1.88-5.77-1.09-.22-.53-.41-1.08-.74-1.93-.42,1-.67,1.85-1,2.59-1.08,2.1-3.1,2.64-4.82,1a11.92,11.92,0,0,1-2.71-3.93C69.64,101.3,69.55,97,70.11,92.44Z"/><path d="M97.23,79.83a11.14,11.14,0,0,0,11-1.19c4,3.81,6.62,8.26,6.69,13.89,0,3.51-1.64,4.55-4.76,3.39-.22,2.63-.24,5.34-.71,8a11.52,11.52,0,0,1-2,4.56,4,4,0,0,1-3,1.54c-.8-.06-1.53-1.4-2.23-2.22a4,4,0,0,1-.47-1.14c-.13.09-.26.12-.28.19-.45,1.49-.76,3.19-2.73,3.3s-2.87-1.34-3.61-2.81a17.77,17.77,0,0,1-1.65-10,2.1,2.1,0,0,1,1-1.45,6.42,6.42,0,0,0,4-6.47C98.38,86.18,97.69,83,97.23,79.83Z"/><path d="M79.78,71.79a10.79,10.79,0,1,1,11-10.62A10.82,10.82,0,0,1,79.78,71.79Z"/><path d="M67.05,69.85a8.75,8.75,0,0,1-8.89,8.8,8.86,8.86,0,0,1-8.86-8.88,9,9,0,0,1,9-8.84A8.85,8.85,0,0,1,67.05,69.85Z"/><path d="M101.51,78.65a8.74,8.74,0,0,1-8.66-9,8.87,8.87,0,1,1,8.66,9Z"/></svg>