<svg id="Layer_1" data-name="Layer 1" xmlns="http://www.w3.org/2000/svg" width="160" height="160" viewBox="0 0 160 160"><defs><style>.cls-1{fill:#c6d3d9;}</style></defs><title>danish</title><rect class="cls-1" width="160" height="160"/><g id="U8njw2.tif"><path d="M105.45,130.23a4.55,4.55,0,0,1-1.61-2.72c0-.5.66-1.55.51-1.82a1.13,1.13,0,0,0-.92-.4c-1.06.21.15.92.13,1-.47,1.57-.46,1.39-2.31,1.18-.93-.1-4.23-.23-3.94,1.6a31.43,31.43,0,0,0-5.06-3.49c-1.51-.69-3-.75-3.62-2.53.68.66.51-.17.57-.41a7.42,7.42,0,0,1,1.09.55c-.21,0,.72-.78.7-.67.23-1-1.93-1.15-1.16-2.68.58-1.18,3-1.46,4-1.1,1.42.51,3.45,4.47,5.12,3.67.08-1,.27-.25.52-.73.54-.05.74-.37.6-1a.39.39,0,0,1,0-.5c.54-.32,1,1.11,1.7.75s-.38-1.93-.57-1.65c1.09-1.58,1,0,1.73-.26a.77.77,0,0,0,.24-.67c.74.21,1,1,1.55,1.22-.18-.06.6-.49.95-.39s.25,1,.55,1.14c.58.36,1.31,0,1.89.39,1.75,1.29-.49,2.76-1.21,3.78a6.81,6.81,0,0,0-1.37,3.21C105.46,128.06,106,130.23,105.45,130.23Z"/><path d="M72.4,121.44c-1-2-3.16-.47-4.74-1.06.85.53,1.21,1.57.17,1.73-.63.1-1.23-1.1-1.34-1.16-1.11-.64-.35-.46-1.27,0-.45.22-.94.68-1.37.86s-1.11.16-1.54.36c-1.24.58-1.22,1.43-2.63.43-.31-.22.19-.62-.18-.86a4.84,4.84,0,0,0-1.61-.53,21.06,21.06,0,0,0-4.36-.81c-1,0-2.19.32-3.12-.23-1.17-.69-.58-1.48-.7-3a6.83,6.83,0,0,1,0-2.07c.07-.34.75-1.4.56-1.69-.38-.59-1.72-.13-1.93.21s.41,2.56-1,2c-1-.35-.67-3.25-.24-3.75s.51-.78,1.22-.45c1.81.85-.09.42.44.9s1.08,1.3,1.57-.12a26,26,0,0,0-.56-3.68c-.4-.18-1.22,1-1.61,1.13-.68.14,0-.8,0-.83.37-.34,1.15-.13,1.52-.52.61-.66.27-2.12-.22-3-.82-1.42-1.84-.65-2.92-1.24a9,9,0,0,1-2.19-2.61c-.17-.33-.28-1.37-.41-1.43-1.8-.78.11,2.5.14,2.67.26,1.38-1.08-.08-1.55-.41-1.38-1-2.25-.72-2-2.44s1.24-3.45,1.31-5.35c.1-3.11-1.36-6.17-1.2-9.22.19-3.44.29-6.78.31-10.24,0-.8.33-9.19,1.71-8.63.55.22-.26,1.88-.14,2.21s.74.76,1,1c.56.51.21,0,.36.78-.13-.64,3.6.76,3.63.75,1.38-.16.26-1.13-.17-1.73-.8-1.11-1.56-1.31-2.46-2.19-.37-.37-.87-2.76-1.39-2.71-.36,0-.32,1.89-.46,2.17-1.75-3.53,2.11-8.29,4.18-10.78A12.17,12.17,0,0,1,48.6,54c.94-.62.59-.26,1.75-.14s1.54.48,2.73,0c.91-.33,1.5-1.18,2.51-1.33s1.56.37,2.44.49a7.45,7.45,0,0,0,2.81-.35,7.53,7.53,0,0,0,4.26-2.86c1.63-2.06,2.33-4.56,3.68-6.75.63-1,1.68-3.05,2.56-3.72,1.08-.84,3.21-.18,4.68-.74,2.09-.8,3.32-2.65,5.11-3.87.66-.45,2.45-1.41,1.86-.09-.38.86-1.88,1.65-2.43,2.56a4,4,0,0,0-.83,2.48,5.16,5.16,0,0,0,1.15,2.21c.93,1.47.61,1.24.53,2.61-.1,1.61.66,3.57.39,5.12s-2,2.65-2.54,4.34-.26,3.29-2.21,3.78c.7.15,0,3.7.06,4.57.17,1.81,1.25,3.23,1.43,5,.09.83-.65,1.5-.64,1.92s.24.09.44.75c.54,1.87,1.93,2.24,3.71,2.13,2.19-.13,3.46-1.22,5.08.43s1.37,2,.79,4.14A12.13,12.13,0,0,1,86,80.24a4.75,4.75,0,0,0-1,.88c0,.49-.08,1-.11,1.48-.21.51-.21,1-.85.91-1.61-.19-.15-1.89-.34-2.11-1.2-1.41-1.88,1-2,1.81,0,.42.52,1.11,0,1.53s-.94-.27-1-.8c-.14-.81.94-.64.2-1.22-.36-.28-2.8.75-2.53-.9.09-.55,2.79-.95,2.51-2.15a2.77,2.77,0,0,0-1.49-.62c-.55.13-.9,1.27-1.21,1.66S75.65,83,76.67,83.18c-.89-.14.38,3.14.4,3.34A10.52,10.52,0,0,1,76.94,90c-.3.94-1.58,4.06-2.18,1.6-.28.4-1.47,1.38-1.56.54-.07-.68.89-.2,1.07-.5-.14.24-3.44-.3-3.66.73-.07.33,2.07.46,2.15.52a1.89,1.89,0,0,1,.76.87s-.61.79-.6.93c0,.48.88.21.91.62,0,.08-1.13.91-1,.56-.2.37.24.46.12.8s-3.51.94-3.69.92c-.7-.07-1.12-.6-1.74-.77a15.82,15.82,0,0,0-2.39-.15c.53.55,1.51.31,2.17.77s.7,1.21,1.09,1.45,1.27-.41,1.58.18a10.72,10.72,0,0,1-1.18,1.48c-.15.2-.74,1.16-.71,1.14-.64.57-.24.15-1.26.47-.36.11-2.58.61-2.65.87.81-.08,2.09-.44,2.71.31.93,1.12-.59.89-1,1.66-.3.55.55,3.42.82,4.1.42,1,1,.4.73,1.76-.22.92-.22.94-1.06,1.38-.27.14-.46-.45-.66-.38a4.35,4.35,0,0,0-1.27.85c-.52.46.2,1.21-.86,1,.79.38,1.58.8,1.16,1.73-.21.44-1.88.72-1.83,1,.1.61,2.66-.09,3,0,1.29.34,2.76,2.07,3.85,2.78a3,3,0,0,0-1.41-2.12c-.86-.5-1.11.47-1.63-.78-.34-.84-.57-.32.2-1,1.44-1.3,4.88,1.53,5.66,2.8.25.39,1.29,2.35,1,2.8C73.59,121.14,72.39,121.43,72.4,121.44ZM55.79,63.72c1.65-.24,1.4,0,2.1,1.42s.54,1.35-.35,2.72c-.11.17-1.67,3.21-.61,2.94.39-.1.13-.61.28-.71-.13.09,1-1,.9-.74-.11-.74-.66-.18.19-1.34.07,1.7,1.63,0,2.46,1.26.1-.34.55-1.78.11-2.16-.71-.6-.55,0-1.26,0-1.36.07-1.19.83-.56-.73.29-.72.63-.74.51-1.51-.07-.42-.71-.13-.78-.49-.15-.75.24-1.33.19-1.92a.82.82,0,0,0-.13-1.28.59.59,0,0,1-.31-.77c0-1,1.85-2.8,2.53-3.18,1.81-1,3-.22,4.35.53.51.28-.15,1.35,1.08-.19,1-1.25,1.34-2.41,3.45-1.61-.74-.89-.47-.42,0-1-.42-1.51-1.35.2-1.57.26-.42.1-2.57.21-1.49-.69-1,1.36-1.54,1.33-3.62,1.74-.86.17-1.93,1-2.62,1.12-1.25.22-.88,0-2-.41s-.57-.33-1.78-.27a8.94,8.94,0,0,1-1.18.1c-1.51.72-1.22,1-2.76.89.83,1.32-2.07,1.08-2.32,1.22-.86.52-.78,1.53-1.15,2.46-.57,1.42-2.13,1.72-2.48,3a1.89,1.89,0,0,0,1.13,2.21c-.51.08-.59.73-1.18.52.54,1,1.09-.65,1.57-.27s-.16.87.29,1.45c-.26-.81.75-.84.8.13,0,.31-1.16.91-1.28,1.23a5.81,5.81,0,0,0,.87,3.14c.84,1,1.5.9,2-.43s-.14-1.28-.58-2.32c-.66-1.56-.1-.89.92-1.84.7-.64.89-2.43,2.51-1.63-.67-1.09-1.51.7-1-1.13C53.34,64.62,54.86,63.15,55.79,63.72ZM41.46,84.66c-.69,1.89,0,5.53.8,7.38.19-.22-.12-1.11.32-1.2a.51.51,0,0,1,.42.42c1.09-.26.07.33.55,1,2.19-1,1.42-2.39.81-4S43.88,84.86,41.46,84.66Zm-.27-7.19c.06.42,1.27.56,1.67.69-.08,0,.94,1.73.77.06,0-.19-2.4-3.43-2.23-3.42C41,74.76,41.23,77.19,41.19,77.47Zm19.38-7.75c-1,.36,0,3.08,1.29,1.06C60.64,71.33,60.58,71,60.57,69.72ZM73.09,55.37c1.17.85,1.9,2.27,3.46,2.6C75.23,57.32,74.56,55.83,73.09,55.37Z"/><path d="M104.48,89.58c-3-.24,2.6-3.63,3.43-4.25,2.3-1.72,4.3-1.43,6.79-.21,3.21,1.57-.13,3.17.32,5.66.24,1.34.92,2.64,1.13,4,0,.28-.23.58-.22.84s.58.53.57.56a2.34,2.34,0,0,0-.33.49c.68.2,1,1.32,1.07,1.89.18.94.47,1.49-.71,2.06-1.57.76-1.87-1.46-3.68-1.15-2.48.42-4.85,4.52-2,5.86,1.26.59,2.3.56,2.75,2.11a2,2,0,0,1-1.11,2.63c-1.78.94-5.28.58-4.09,3.43.12.28.67.11.73.65.1.8-.67.63-.71,1-.08.62.61,1.41.51,2.07a4.1,4.1,0,0,1-1,.92c-1.3.5-1.6-.21-2.71-.47-1.71-.41-.14.62-1.78-.81A10.67,10.67,0,0,0,99.78,115a10.56,10.56,0,0,1,3.39,1.11c-.42-.89-1.29-1.28-1.83-2.1s-.48-1.21-1.24-1.69a9.74,9.74,0,0,0-2-.61,12.6,12.6,0,0,0-1.5-.59c0,.16.72.78.15.8-.14,0-.83.13-.87-.16a.9.9,0,0,0,.26-.32,4.87,4.87,0,0,1-2.51,0c-.58-.54-.07-1-.35-1.81-.37-1-.54-.66-1.29-1.4-2-1.93-.29-.87.54-2.18a3.72,3.72,0,0,0-.59-3.39c-.41-.44-1.31-.28-1.28-.83,0-1,2-.15.89-2.25-.52-1-3-1.2-3.18-1.64-.39-1,1.67,0,2.38-.28,0,0-3.44-2.67-3.53-2.19.1-.54,5,0,5.53,0,2,.06,3.46-.92,2.58-3.14,1.19,1,3.5-.81,2.63-2.31s-3.81-.33-4-2.52a7.73,7.73,0,0,0,4.32,1.46c.21,0,1.51.35,1.71.34.75,0,1.33-.75,1.89-.77,1,0,.59,1.07.06,1.57-.91.84-1.43-.18-1,1.43.14.51.85.91.58,1.55s-.64,0-.88.21-1.24.76-.61,1.1,2.07-1.64,2,.51c0,.82-1.75.75-1.69,1,.16.68,3.71-1.08,1.94,1.91,1.14-.54,1.07-1.74,1.26-2.78a4.23,4.23,0,0,1,.88-2c.46-.76.78-.19.62-1.46-.1-.85-.82-1.25-.62-2.17A2.17,2.17,0,0,1,106.4,91c-.33-.7.24,1.87.13,1.19.08.54.39,1.12.46,1.7s.37,1.26,0,1.81c-.19.26-.85.25-.86.26s-1.06,1-.77,1.38.43-.78.73-.62,1.4,1.22,1.27,1.27.51-1.63.51-1.62c.08-1.3-.85-2.51-1-3.76C106.67,91,107.21,87.94,104.48,89.58Z"/><path d="M67.43,102.05c1.38.74.66-.73,1.64-.81,1.31-.11,1,1.08,2.29,1,.94-.07,2.58-1.56,3.5-2a6.9,6.9,0,0,1,1.9-.77c.73,0,.39.66.71.64.12,0,0-.85.54-1s2.66,1.93,3.18,2.37c-.88.22-.23,1-.52,1.68s-.53.33-.65.4a1.46,1.46,0,0,0-.13.85c.84-.08.4-.6.74-.7-.2.06,1.22-.41.88-.22.71-.39,2.39-.54.48-1.26.19-.63.43-.53.89-.14,0-.88-.91-3.08.14-2.82.8.19,1.92,3.63,1.84,4.14s-1-.08-.85,1c0,.53,1.79,2.55,2.1,3.19.22.47.7.82.62,1.29s-.71-.38-.87-.3c.3-.16-.13,4.72-.18,4.9-.24.78-1.06,3.42-2.09,2.84,0,.3-.66,1.27-.36,1.48s.42-.49.77-.38c.75.23-1.33,1.48-1.61,1.46-2.1-.16-.61-2,0-2.81-2.28.88-4.13-.48-6.11-1.5-.41.66,0,.54-.64.69-.47.1-2-.11-2-.72.11-1.07,1.69-.3,1.13-1.66s-1.51,0-2.17-1.14c-.78.75,1.2,1.39.3,2-1.07.77-.72-2.26-.77-2.35-.62-1.13-1.29-.77-1.59-2.25-.21-1-.06-1.27-.51-2-.14-.24-1.19,0-1.18-.59,0-.79,1.4-.25.12-1.26a.55.55,0,0,1,.4-.24c-.37-.71-1.22-.4-1.65-1.51.59.24.94.82,1.57,1-.42-.72-1.23-1-1.59-1.76C67.72,104.56,66.34,102.11,67.43,102.05Z"/><path d="M83.69,124.45c-.07-.23-1.14-2.29-1.14-2.26a11.52,11.52,0,0,0,1-.6s.9-1,.83-.79c.11-.37-.73-.4-.57-.77s.32-.57.44-.84c.44-1,1.57-1.49,2.12-2.44.44-.77,1.82-6.11,2.1-3,.2,2.29-1.65,4.79-2.34,6.84-.39,1.18-.46,3.13-1.2,4.09C84.48,125.27,83.59,126,83.69,124.45Z"/><path d="M112.32,118.48c-1.78.14-1.9,2.51-3.59,2.45-.49,0-3.48-2-2.86-2.25.4-.14,1.72,1.33,1.86,1.34s.46-1.39.65-1.6c1.07-1.14.79.14,1.38-.27s1.25-.49.88-1.35-1.28-.11-1.46-.69c-.31-1,1.67,0,1.77.06.91.28,2.44.16,3.29.63.52.28,1.65,1.43,1,2.09S113,118.49,112.32,118.48Z"/><path d="M92.55,48.51c-1.37-1.62-1.71.79-2,1.19-.62,1-.9.84-1.84.77.07,0-1.49-.65-1.37-.48C86.16,48.21,93.07,45.69,92.55,48.51Z"/><path d="M81.26,93.07c-.07-1.46,1.59-1.42,1-3-.19-.53-1-.27-1.1-1.14,0-.31.3-1.26.73-1.07-.29-.12,1.51,2.92,1.5,2.51,0,.1-.43.23-.47.17s.36,1,.34.78.44.35.48.57-.51,2.72-.87,2.9C81.68,95.35,81.25,93.86,81.26,93.07Z"/><path d="M79.37,120.06c0,.14.2,1.28.67,1.15a.49.49,0,0,0,0-.7s1.62,1,1.32,1.37a2.08,2.08,0,0,1-2.62.33c-.59-.32-3.22-3.71-2.76-3.95C77.14,117.67,78,121.61,79.37,120.06Z"/><path d="M45.83,104.19c0,.24.68.71.89,1.13.29.59.56,2.25-.42,2a13.46,13.46,0,0,1-1.8-2.86C44.49,103.41,46,103.25,45.83,104.19Z"/><path d="M100.42,65.54c-.19.12-1.37,1.59-1.72,1.52s-1-.58-.79-1A4,4,0,0,1,100.42,65.54Z"/><path d="M97.18,118.82c0,.42-1.19.75-1.51.65-.09,0-.67-1-.46-1.13-.11.07,1.09.12.9.09C96.49,118.48,97,118.19,97.18,118.82Z"/><path d="M119.32,99c0,1.09-1,0-.9-.74C118.67,96.7,119.24,98.41,119.32,99Z"/><path d="M103.1,93.51c.74.64.27,2.35-.64,1.34C101.85,94.18,103,94,103.1,93.51Z"/><path d="M55.79,63.72c-.16-.18-1-.94-.84-1.29s1.57-.49,1.78-.26C57.13,62.6,56.22,63.66,55.79,63.72Z"/><path d="M48.76,65.76c.13,1.09-.31.38-.52.39.61,0-.82-1.11-.76-.35A3.25,3.25,0,0,1,48.06,64c.38-.3,1.94-.28,1.9-.82,0-.2-.66-.24-.77-.33.18.16.54-2,.57-2,.38-.35,1.4-.15,1.89-.35a10.51,10.51,0,0,0,2.8-2.28c-.19,1.09,0,2.27-.58,3.27-.56.07-.9-1.16-.8.6S54,63.4,53,65a7,7,0,0,1-1.45,2C49.85,68.2,49.47,67.17,48.76,65.76Z"/></g></svg>