<svg id="Layer_1" data-name="Layer 1" xmlns="http://www.w3.org/2000/svg" width="60" height="60" viewBox="0 0 60 60"><defs><style>.cls-1{fill:#d3605e;}</style></defs><title>heart</title><g id="Page-1"><g id="heart"><path id="Combined-Shape" class="cls-1" d="M30,14.46A15,15,0,0,1,60,15c0,.26,0,.51,0,.76s0,.27,0,.42a7.87,7.87,0,0,1-.4,2.26,14.73,14.73,0,0,1-2.27,5.11Q51,35.07,30,60,8.84,34.92,2.6,23.42a15.15,15.15,0,0,1-2.12-4.7A8.57,8.57,0,0,1,0,16.18a4.63,4.63,0,0,1,0-.54c0-.21,0-.43,0-.64a15,15,0,0,1,30-.54Z"/></g></g></svg>