<svg id="Layer_1" data-name="Layer 1" xmlns="http://www.w3.org/2000/svg" width="160" height="160" viewBox="0 0 160 160"><defs><style>.cls-1{fill:#c5e0c2;}.cls-2{fill:#fff;opacity:0.5;}.cls-2,.cls-3{stroke:#000;stroke-miterlimit:10;stroke-width:4px;}.cls-3{fill:none;}</style></defs><title>jar</title><rect class="cls-1" width="160" height="160"/><path class="cls-2" d="M99.08,55.8A8.94,8.94,0,0,1,108,64.72v42.36A8.94,8.94,0,0,1,99.08,116H61.92A8.94,8.94,0,0,1,53,107.08V64.72a8.94,8.94,0,0,1,8.92-8.92"/><path d="M106,49.9c0,2.05-1.53,11.33-3.71,12.26-1,.41-1.8-2.54-3-3.71-.74-.75-2.29-2.82-3.48-2.7-1,.1-1.42,5.61-2.46,5.67-1.25.07-3.09-5.31-4.45-5.28-1.15,0-4,6-5.21,6-1.85,0-2.12-5.94-4.09-5.94-1.47,0-3.43,6-4.83,5.94-1.59,0-2.62-6-4.1-6s-2,6.09-3.34,6c-1.7-.09-3-5.74-4.45-5.94s-2.67,6.25-3.72,5.94c-1.76-.5-3.4-3.45-4.51-6.4a20.88,20.88,0,0,1-1.44-5.86c0-6.32,0-6.32,26.39-6.32S106,43.58,106,49.9Z"/><rect x="60.68" y="75.54" width="38.65" height="21.55" rx="3.83" ry="3.83"/><path class="cls-3" d="M99.08,55.8A8.94,8.94,0,0,1,108,64.72v42.36A8.94,8.94,0,0,1,99.08,116H61.92A8.94,8.94,0,0,1,53,107.08V64.72a8.94,8.94,0,0,1,8.92-8.92"/></svg>