<svg id="Layer_1" data-name="Layer 1" xmlns="http://www.w3.org/2000/svg" width="160" height="160" viewBox="0 0 160 160"><defs><style>.cls-1{fill:#cc7675;}.cls-2{fill:#fff;}</style></defs><title>passion</title><rect class="cls-1" width="160" height="160"/><g id="Page-1"><g id="heart"><path id="Combined-Shape" class="cls-2" d="M80,68.46A15,15,0,0,1,110,69c0,.26,0,.51,0,.76s0,.27,0,.42a7.87,7.87,0,0,1-.4,2.26,14.73,14.73,0,0,1-2.27,5.11Q101,89.07,80,114,58.84,88.92,52.6,77.42a15.15,15.15,0,0,1-2.12-4.7A8.57,8.57,0,0,1,50,70.18a4.63,4.63,0,0,1,0-.54c0-.21,0-.43,0-.64a15,15,0,0,1,30-.54Z"/></g></g></svg>