<svg id="Layer_1" data-name="Layer 1" xmlns="http://www.w3.org/2000/svg" width="160" height="176" viewBox="0 0 160 176"><defs><style>.cls-1{fill:#242424;}.cls-2{fill:#fff;}</style></defs><title>raa</title><rect class="cls-1" width="160" height="176"/><path class="cls-2" d="M38.44,50.51a1.23,1.23,0,0,1,.88.29.93.93,0,0,1,0,1.4,1.22,1.22,0,0,1-.9.31H28.67a1.26,1.26,0,0,1-.91-.31.91.91,0,0,1-.33-.69.93.93,0,0,1,.32-.71,1.25,1.25,0,0,1,.9-.29H31.7V26H29.33a1.24,1.24,0,0,1-.89-.31.94.94,0,0,1-.33-.72,1,1,0,0,1,.33-.75,1.24,1.24,0,0,1,.92-.32h7.81a29.27,29.27,0,0,1,6.5.6,7.31,7.31,0,0,1,4,2.29,7.28,7.28,0,0,1,1.45,4.87,6.28,6.28,0,0,1-1.42,4.26A8.75,8.75,0,0,1,44.1,38.4l5,12.11h2.06a1.92,1.92,0,0,1,1.2.28.84.84,0,0,1,.36.69.88.88,0,0,1-.37.73,1.82,1.82,0,0,1-1.17.3H45.42a1.26,1.26,0,0,1-.91-.31.94.94,0,0,1-.33-.72.86.86,0,0,1,.32-.68,1.21,1.21,0,0,1,.87-.29h1.25l-4.4-11.58a9.39,9.39,0,0,1-1.66.22c-.92.08-1.67.12-2.24.12H34.05V50.51ZM34.05,26V37.4h2.61A30.7,30.7,0,0,0,42.21,37a6.25,6.25,0,0,0,3.36-1.61,4.76,4.76,0,0,0,1.22-3.53,6.09,6.09,0,0,0-.95-3.71,4.89,4.89,0,0,0-3-1.68A28,28,0,0,0,37.15,26Z"/><path class="cls-2" d="M76,52.51h-8.5a1.22,1.22,0,0,1-.9-.31,1,1,0,0,1-.32-.74,1,1,0,0,1,.32-.73,1.15,1.15,0,0,1,.88-.32h2.07L79,26H73.7a1.23,1.23,0,0,1-.91-.31,1,1,0,0,1-.32-.74,1,1,0,0,1,.32-.73,1.16,1.16,0,0,1,.88-.32h7.4a2,2,0,0,1,2,1.59l8.83,24.9h1.93a1.18,1.18,0,0,1,.87.3,1,1,0,0,1,.3.72,1,1,0,0,1-.33.76,1.21,1.21,0,0,1-.89.32H84.83a1.29,1.29,0,0,1-.92-.32,1,1,0,0,1-.33-.76,1,1,0,0,1,.32-.72,1.22,1.22,0,0,1,.88-.3h4.54l-2.61-7.47H74.92l-2.74,7.47h3.88a1.23,1.23,0,0,1,.9.32,1,1,0,0,1,.32.73,1,1,0,0,1-.32.74A1.3,1.3,0,0,1,76,52.51Zm-.32-11.6H86L81.12,26.34Z"/><path class="cls-2" d="M117.81,52.51h-8.49a1.24,1.24,0,0,1-.91-.31,1,1,0,0,1,0-1.47,1.16,1.16,0,0,1,.88-.32h2.08L120.77,26h-5.3a1.22,1.22,0,0,1-.9-.31,1,1,0,0,1,0-1.47,1.14,1.14,0,0,1,.87-.32h7.4a2,2,0,0,1,2,1.59l8.84,24.9h1.93a1.17,1.17,0,0,1,.86.3,1,1,0,0,1,.31.72,1,1,0,0,1-.33.76,1.24,1.24,0,0,1-.89.32H126.6a1.26,1.26,0,0,1-.91-.32,1,1,0,0,1-.33-.76,1,1,0,0,1,.31-.72,1.24,1.24,0,0,1,.88-.3h4.54l-2.61-7.47H116.69L114,50.41h3.88a1.2,1.2,0,0,1,.89.32,1,1,0,0,1,.33.73,1,1,0,0,1-.33.74A1.28,1.28,0,0,1,117.81,52.51Zm-.31-11.6h10.25l-4.86-14.57Z"/><path class="cls-2" d="M34.27,104.51h-8.5a1.22,1.22,0,0,1-.9-.31,1,1,0,0,1,0-1.47,1.15,1.15,0,0,1,.88-.32h2.07L37.22,78h-5.3a1.22,1.22,0,0,1-.9-.31A1,1,0,0,1,30.7,77a1,1,0,0,1,.32-.73,1.15,1.15,0,0,1,.88-.32h7.39a2,2,0,0,1,2,1.59l8.84,24.9H52a1.21,1.21,0,0,1,.87.3,1,1,0,0,1,0,1.48,1.24,1.24,0,0,1-.89.32H43.05a1.26,1.26,0,0,1-.91-.32,1,1,0,0,1-.33-.76,1,1,0,0,1,.32-.72,1.22,1.22,0,0,1,.88-.3h4.54l-2.62-7.47H33.14l-2.73,7.47h3.88a1.2,1.2,0,0,1,.89.32,1,1,0,0,1,.33.73,1,1,0,0,1-.33.74A1.26,1.26,0,0,1,34.27,104.51ZM34,92.91H44.2L39.34,78.34Z"/><path class="cls-2" d="M76,104.51h-8.5a1.22,1.22,0,0,1-.9-.31,1,1,0,0,1-.32-.74,1,1,0,0,1,.32-.73,1.15,1.15,0,0,1,.88-.32h2.07L79,78H73.7a1.23,1.23,0,0,1-.91-.31,1,1,0,0,1-.32-.74,1,1,0,0,1,.32-.73,1.16,1.16,0,0,1,.88-.32h7.4a2,2,0,0,1,2,1.59l8.83,24.9h1.93a1.18,1.18,0,0,1,.87.3,1,1,0,0,1,.3.72,1,1,0,0,1-.33.76,1.21,1.21,0,0,1-.89.32H84.83a1.29,1.29,0,0,1-.92-.32,1,1,0,0,1-.33-.76,1,1,0,0,1,.32-.72,1.22,1.22,0,0,1,.88-.3h4.54l-2.61-7.47H74.92l-2.74,7.47h3.88a1.23,1.23,0,0,1,.9.32,1,1,0,0,1,.32.73,1,1,0,0,1-.32.74A1.3,1.3,0,0,1,76,104.51Zm-.32-11.6H86L81.12,78.34Z"/><path class="cls-2" d="M122,102.51a1.25,1.25,0,0,1,.88.29.95.95,0,0,1,0,1.4,1.26,1.26,0,0,1-.91.31h-9.74a1.26,1.26,0,0,1-.91-.31.93.93,0,0,1,0-1.4,1.28,1.28,0,0,1,.91-.29h3V78h-2.37a1.24,1.24,0,0,1-.89-.31.94.94,0,0,1-.33-.72,1,1,0,0,1,.33-.75,1.23,1.23,0,0,1,.92-.32h7.81a29.17,29.17,0,0,1,6.49.6,6.51,6.51,0,0,1,5.47,7.16,6.24,6.24,0,0,1-1.43,4.26,8.65,8.65,0,0,1-3.6,2.46l5,12.11h2.05a2,2,0,0,1,1.21.28.84.84,0,0,1,.36.69.9.9,0,0,1-.37.73,1.86,1.86,0,0,1-1.17.3H129a1.28,1.28,0,0,1-.92-.31.94.94,0,0,1-.33-.72.9.9,0,0,1,.32-.68,1.23,1.23,0,0,1,.88-.29h1.25l-4.4-11.58a9.39,9.39,0,0,1-1.66.22c-.93.08-1.68.13-2.24.13h-4.28v11.23ZM117.59,78V89.4h2.62a30.86,30.86,0,0,0,5.55-.41,6.32,6.32,0,0,0,3.36-1.61,4.76,4.76,0,0,0,1.22-3.53,6,6,0,0,0-1-3.71,4.83,4.83,0,0,0-3-1.68,28.86,28.86,0,0,0-5.72-.44Z"/><path class="cls-2" d="M34.78,156.51H27.06a1.24,1.24,0,0,1-.89-.32,1,1,0,0,1-.33-.76,1,1,0,0,1,.31-.72,1.17,1.17,0,0,1,.86-.3h3V130H27.41a1.23,1.23,0,0,1-.91-.31,1,1,0,0,1-.32-.74,1,1,0,0,1,.33-.73,1.25,1.25,0,0,1,.9-.32h7.37a1.24,1.24,0,0,1,.89.32A1,1,0,0,1,36,129a1,1,0,0,1-.31.72,1.13,1.13,0,0,1-.86.31H32.39v10.91H45.57V130H43.13a1.14,1.14,0,0,1-.87-.31A1,1,0,0,1,42,129a1,1,0,0,1,.33-.75,1.23,1.23,0,0,1,.89-.32h7.17a1.29,1.29,0,0,1,.9.3,1,1,0,0,1,.33.7,1.09,1.09,0,0,1-.32.77,1.19,1.19,0,0,1-.91.33H47.91v24.39h2.44a1.26,1.26,0,0,1,.91.3,1,1,0,0,1,.32.75,1,1,0,0,1-.33.73,1.25,1.25,0,0,1-.9.32H43.18a1.23,1.23,0,0,1-.89-.32,1,1,0,0,1,0-1.48,1.18,1.18,0,0,1,.87-.3h2.44V142.88H32.39v11.53h2.44a1.21,1.21,0,0,1,.86.29.92.92,0,0,1,.31.68,1.09,1.09,0,0,1-.33.8A1.21,1.21,0,0,1,34.78,156.51Z"/><path class="cls-2" d="M91.13,146.47a11.55,11.55,0,0,1-1.24,5.45,8.91,8.91,0,0,1-3.46,3.68,9.89,9.89,0,0,1-5.12,1.32,10.43,10.43,0,0,1-5.16-1.25A8.71,8.71,0,0,1,72.67,152a11.92,11.92,0,0,1-1.25-5.62V130H67.88a1.17,1.17,0,0,1-.87-.31.93.93,0,0,1-.32-.72,1,1,0,0,1,.33-.75,1.24,1.24,0,0,1,.89-.32H77.7a1.24,1.24,0,0,1,.89.32,1,1,0,0,1,.33.75,1,1,0,0,1-.32.72,1.18,1.18,0,0,1-.88.31h-4v16.4a9.07,9.07,0,0,0,2,6.21,7.1,7.1,0,0,0,5.59,2.19,7.18,7.18,0,0,0,3.93-1.06,7.09,7.09,0,0,0,2.62-2.95,9.85,9.85,0,0,0,.92-4.34V130h-3a1.22,1.22,0,0,1-.89-.31.94.94,0,0,1-.33-.72,1,1,0,0,1,.33-.75,1.26,1.26,0,0,1,.91-.32H94a2.17,2.17,0,0,1,1.26.32.91.91,0,0,1,.45.75.85.85,0,0,1-.44.72A2.11,2.11,0,0,1,94,130H91.13Z"/><path class="cls-2" d="M129.53,133.34a3.15,3.15,0,0,0-1.13-2A6.57,6.57,0,0,0,126,130a11,11,0,0,0-3-.41,7.64,7.64,0,0,0-4.88,1.4,4.64,4.64,0,0,0-1.76,3.85,4.59,4.59,0,0,0,.6,2.54,3.94,3.94,0,0,0,1.67,1.41c.71.34,1.89.8,3.51,1.37l3.32,1.15a22,22,0,0,1,4.17,1.84,7.06,7.06,0,0,1,2.45,2.37,6.46,6.46,0,0,1,.85,3.43,7.82,7.82,0,0,1-1.22,4.54,7,7,0,0,1-3.24,2.59,12.29,12.29,0,0,1-4.52.8,13.38,13.38,0,0,1-4.37-.8,8.83,8.83,0,0,1-3.59-2.18,6.64,6.64,0,0,1-.29,2.2c-.2.52-.48.78-.86.78a1,1,0,0,1-.9-.39,2.63,2.63,0,0,1-.27-1.41v-7.67a1.1,1.1,0,0,1,.31-.85,1,1,0,0,1,.77-.3,1.12,1.12,0,0,1,.79.32,1.17,1.17,0,0,1,.33.88v2.9a2.85,2.85,0,0,0,1.2,2.07,9.29,9.29,0,0,0,3.08,1.69,11.75,11.75,0,0,0,3.87.66,7.6,7.6,0,0,0,4.74-1.39,5.1,5.1,0,0,0,1.83-4.34,4.66,4.66,0,0,0-.63-2.52,5,5,0,0,0-1.82-1.66,20.08,20.08,0,0,0-3.16-1.34l-4-1.37a23.52,23.52,0,0,1-3.73-1.57,6.62,6.62,0,0,1-2.34-2.15A6.26,6.26,0,0,1,114,135a6.93,6.93,0,0,1,4.17-6.61,10.29,10.29,0,0,1,4.26-.86,15.92,15.92,0,0,1,4,.49,6,6,0,0,1,3,1.75,3.7,3.7,0,0,1,.29-1.68,1,1,0,0,1,1-.56.79.79,0,0,1,.74.39,2.68,2.68,0,0,1,.23,1.32v6.17a1.35,1.35,0,0,1-.31,1,1.11,1.11,0,0,1-1.91-.82Z"/></svg>