<svg id="Layer_1" data-name="Layer 1" xmlns="http://www.w3.org/2000/svg" width="35" height="64" viewBox="0 0 35 64"><defs><style>.cls-1{fill:#ffe500;}</style></defs><title>institutforx</title><path d="M17.62,62.82C14.86,56.94.5,25.95.5,17.41a17,17,0,0,1,34,0C34.5,25.95,20.34,56.94,17.62,62.82Z"/><path class="cls-1" d="M17.5,1A16.47,16.47,0,0,1,34,17.41c0,8-12.83,36.51-16.38,44.22C14,53.92,1,25.45,1,17.41A16.47,16.47,0,0,1,17.5,1m0-1A17.46,17.46,0,0,0,0,17.41C0,27,17.62,64,17.62,64S35,27,35,17.41A17.46,17.46,0,0,0,17.5,0Z"/><polygon class="cls-1" points="6.53 13.54 12.27 19.5 6.53 25.38 11.32 30.2 17.1 24.62 23.22 30.62 28.18 25.81 22.17 19.63 28.47 13.42 23.59 8.5 17.26 14.68 11.35 8.76 6.53 13.54"/></svg>