<svg id="Layer_1" data-name="Layer 1" xmlns="http://www.w3.org/2000/svg" width="35" height="64" viewBox="0 0 35 64"><defs><style>.cls-1{fill:#fff;}.cls-2{font-size:33.52px;font-family:Sifonn-Pro, Sifonn;}</style></defs><title>plantecafeen</title><path class="cls-1" d="M17.62,62.82C14.86,56.94.5,25.95.5,17.41a17,17,0,0,1,34,0C34.5,25.95,20.34,56.94,17.62,62.82Z"/><path d="M17.5,1A16.47,16.47,0,0,1,34,17.41c0,8-12.83,36.51-16.38,44.22C14,53.92,1,25.45,1,17.41A16.47,16.47,0,0,1,17.5,1m0-1A17.46,17.46,0,0,0,0,17.41C0,27,17.62,64,17.62,64S35,27,35,17.41A17.46,17.46,0,0,0,17.5,0Z"/><text class="cls-2" transform="translate(7.38 32.42)">P</text></svg>