<svg xmlns="http://www.w3.org/2000/svg" viewBox="0 0 1930 1080"><defs><style>.cls-1{fill:#cad7d2;}.cls-2{fill:#f5d4c9;}.cls-3{fill:#dcb3a6;}.cls-4{fill:#80ae9e;}.cls-5{fill:#9dc1b3;}.cls-6{fill:#e6bec7;}.cls-7{fill:#d19eaa;}</style></defs><title>8</title><g id="Layer_9" data-name="Layer 9"><rect class="cls-1" width="1930" height="1080" transform="translate(1930 1080) rotate(-180)"/></g><g id="Layer_2" data-name="Layer 2"><polygon class="cls-2" points="1472.33 1080 1728.33 1080 1708.33 0 1440.33 0 1472.33 1080"/></g><g id="Layer_3" data-name="Layer 3"><polygon class="cls-3" points="1246 1080 1474 1080 1442 0 1222 0 1246 1080"/></g><g id="Layer_4" data-name="Layer 4"><polygon class="cls-4" points="1728.33 1080 1930 1080 1930 436 1715 360.02 1728.33 1080"/></g><g id="Layer_5" data-name="Layer 5"><path class="cls-5" d="M1930,436v0Z" transform="translate(0 0)"/><polyline class="cls-5" points="1930 436 1715 360.02 1930 306"/></g><g id="Layer_6" data-name="Layer 6"><polygon class="cls-5" points="468 1080 1246 1080 1228.4 288.17 456 0 468 1080"/></g><g id="Layer_7" data-name="Layer 7"><polygon class="cls-6" points="17 1080 468 1080 460.98 447.81 17 306 17 1080"/></g><g id="Layer_8" data-name="Layer 8"><polygon class="cls-7" points="10 1080 138 1080 122 344 10 306 10 1080"/></g></svg>