<?xml version="1.0" standalone="no"?>
<!DOCTYPE svg PUBLIC "-//W3C//DTD SVG 20010904//EN"
 "http://www.w3.org/TR/2001/REC-SVG-20010904/DTD/svg10.dtd">
<svg version="1.0" xmlns="http://www.w3.org/2000/svg"
 width="1269.000000pt" height="1269.000000pt" viewBox="0 0 1269.000000 1269.000000"
 preserveAspectRatio="xMidYMid meet">
<metadata>
Created by potrace 1.11, written by Peter Selinger 2001-2013
</metadata>
<g transform="translate(0.000000,1269.000000) scale(0.100000,-0.100000)"
fill="#000000" stroke="none">
<path d="M6280 12487 c-20 -7 -310 -172 -645 -367 -675 -392 -767 -442 -905
-496 -192 -74 -161 -67 -1380 -304 -542 -105 -1017 -201 -1057 -213 l-72 -21
-30 -66 c-16 -36 -99 -268 -185 -517 -85 -248 -167 -477 -182 -509 -49 -105
-109 -151 -443 -344 -167 -96 -322 -191 -345 -211 l-41 -37 -6 -883 c-5 -850
-6 -888 -27 -981 -42 -195 -41 -193 -485 -1483 -158 -456 -289 -848 -293 -871
-5 -34 -2 -48 22 -85 15 -24 172 -210 348 -413 177 -203 338 -392 358 -420 74
-100 78 -130 92 -593 l11 -412 25 -27 c34 -36 22 -29 700 -418 655 -376 745
-433 891 -554 116 -97 158 -144 957 -1063 347 -399 650 -743 674 -764 42 -36
45 -37 103 -31 33 3 269 47 525 97 416 83 477 93 580 93 141 1 131 5 520 -219
151 -87 296 -167 323 -177 45 -17 49 -17 95 0 26 10 331 183 677 384 671 389
755 435 906 491 157 59 246 78 1346 293 589 114 1070 213 1095 224 34 15 48
29 67 67 13 26 95 257 183 513 88 255 171 489 186 520 49 105 116 157 448 349
166 96 319 189 340 208 l39 33 6 848 c7 924 7 925 69 1172 15 63 186 574 380
1135 199 580 353 1042 356 1070 5 43 1 56 -23 91 -15 23 -172 207 -349 410
-176 203 -338 393 -358 422 -75 104 -78 126 -85 584 l-6 408 -40 39 c-25 25
-274 173 -680 406 -671 385 -786 457 -926 579 -103 90 -140 131 -937 1048
-347 400 -650 741 -672 759 -36 29 -46 32 -97 30 -31 -1 -275 -46 -542 -98
-548 -108 -609 -114 -716 -73 -33 12 -181 93 -330 178 -289 166 -378 212 -410
212 -11 -1 -36 -7 -55 -13z m-2061 -5694 c311 -969 567 -1761 568 -1759 1 1
246 760 543 1686 297 927 552 1720 566 1763 l26 77 425 -2 426 -3 566 -1763
c311 -970 567 -1758 570 -1750 3 7 257 801 566 1763 l562 1750 643 3 c512 2
641 0 638 -10 -3 -7 -412 -1209 -909 -2670 l-903 -2658 -521 0 -521 0 -553
1603 c-304 881 -556 1608 -560 1615 -4 7 -255 -706 -561 -1590 -304 -882 -555
-1609 -558 -1616 -3 -9 -118 -12 -526 -12 l-522 0 -903 2658 c-497 1461 -906
2663 -909 2670 -3 10 126 12 638 10 l643 -3 566 -1762z"/>
</g>
</svg>
