<svg xmlns="http://www.w3.org/2000/svg" width="202.5" height="202.5" viewBox="0 0 202.5 202.5"><defs><style>.cls-1{fill:#fffdfe;}</style></defs><title>instagram</title><g id="Layer_2" data-name="Layer 2"><g id="Layer_1-2" data-name="Layer 1"><path class="cls-1" d="M101.2,72.7a28.5,28.5,0,1,0,28.5,28.5A28.55,28.55,0,0,0,101.2,72.7Z"/><path class="cls-1" d="M167.4,0H35A35,35,0,0,0,0,35V167.5a35,35,0,0,0,35,35H167.5a35,35,0,0,0,35-35V35A35.19,35.19,0,0,0,167.4,0ZM101.2,159.7a58.5,58.5,0,1,1,58.5-58.5A58.58,58.58,0,0,1,101.2,159.7ZM181.1,35.8a14.51,14.51,0,0,1-14.5,14.5h0a14.51,14.51,0,0,1-14.5-14.5h0a14.51,14.51,0,0,1,14.5-14.5h0a14.51,14.51,0,0,1,14.5,14.5Z"/></g></g></svg>