<svg xmlns="http://www.w3.org/2000/svg" width="202.5" height="202.5" viewBox="0 0 202.5 202.5"><defs><style>.cls-1{fill:#fff;}</style></defs><title>twitter</title><g id="Layer_2" data-name="Layer 2"><g id="Layer_1-2" data-name="Layer 1"><path class="cls-1" d="M167.5,0H35A35,35,0,0,0,0,35V167.5a35,35,0,0,0,35,35H167.5a35,35,0,0,0,35-35V35A35,35,0,0,0,167.5,0Zm-11,73.6s3.3,34.9-19.5,59.6C94.7,178.9,31.8,146.7,31.8,146.7c27,.9,41.9-10.7,41.9-10.7-18.2-2.3-25.6-20.9-25.6-20.9,7.4,1.9,12.1,0,12.1,0-20.5-7-22.3-28.9-22.3-28.9,5.6,5.1,13.5,3.7,13.5,3.7-19.5-13-12.1-41-12.1-41s26.5,31.7,61.4,31.2c0,0-3.3-21.3,14.4-31.2,17.2-9.5,30.5-1,35,7.1,4.7-1,13-4.3,18.3-8.9.1,8.7-10,15.7-10,15.7,9.3-1.4,14.4-4.7,14.4-4.7C168.8,67.8,156.5,73.6,156.5,73.6Z"/></g></g></svg>