<svg id="Layer_1" data-name="Layer 1" xmlns="http://www.w3.org/2000/svg" width="1067.19" height="600" viewBox="0 0 1067.19 600"><defs><style>.cls-1{fill:#889ac5;}.cls-2{fill:#386398;}.cls-3{font-size:18px;font-family:SofiaW01-Regular, SofiaW01-Regular;}.cls-4{font-size:96px;font-family:SofiaW01-Bold, SofiaW01-Bold;}.cls-4,.cls-6{opacity:0.1;}.cls-5{letter-spacing:-0.05em;}.cls-6{fill:none;stroke:#000;stroke-miterlimit:10;}</style></defs><title>demographics</title><rect class="cls-1" x="235.59" y="19.88" width="100" height="390"/><rect class="cls-1" x="355.59" y="180" width="100" height="230"/><rect class="cls-1" x="475.59" y="370" width="100" height="40"/><rect class="cls-2" x="235.59" y="440" width="100" height="140"/><rect class="cls-1" x="595.59" y="360" width="100" height="50"/><rect class="cls-1" x="715.59" y="390" width="100" height="20"/><rect class="cls-1" x="835.59" y="405" width="100" height="5"/><rect class="cls-2" x="355.59" y="440" width="100" height="80"/><rect class="cls-2" x="475.59" y="440" width="100" height="10"/><rect class="cls-2" x="595.59" y="440" width="100" height="6"/><rect class="cls-2" x="115.59" y="440" width="100" height="1"/><rect class="cls-1" x="115.59" y="405" width="100" height="5"/><rect class="cls-2" x="715.59" y="440" width="100" height="8"/><rect class="cls-2" x="835.59" y="440" width="100" height="2"/><text class="cls-3" transform="translate(144.69 430.98)">13–17</text><text class="cls-3" transform="translate(262.15 430.98)">18–24</text><text class="cls-3" transform="translate(380.32 430.98)">25–34</text><text class="cls-3" transform="translate(499.74 430.98)">35–44</text><text class="cls-3" transform="translate(619.48 430.98)">45–54</text><text class="cls-3" transform="translate(739.8 430.98)">55–64</text><text class="cls-3" transform="translate(870.89 430.98)">65+</text><text class="cls-4" transform="translate(611.17 182.26)"><tspan class="cls-5">W</tspan><tspan x="80.64" y="0">omen</tspan></text><text class="cls-4" transform="translate(739.62 557.26)">Men</text><line class="cls-6" x1="44.59" y1="410.5" x2="1014.59" y2="410.5"/><line class="cls-6" x1="44.59" y1="439.5" x2="1014.59" y2="439.5"/></svg>